# This file uses centimeters as units for non-parametric coordinates.

mtllib building1.mtl
g default
v -10.000000 -25.000000 10.000000
v 10.000000 -25.000000 10.000000
v -10.000000 25.000000 10.000000
v 10.000000 25.000000 10.000000
v -10.000000 25.000000 -10.000000
v 10.000000 25.000000 -10.000000
v -10.000000 -25.000000 -10.000000
v 10.000000 -25.000000 -10.000000
vt 0.220246 0.166879
vt 0.220246 0.004225
vt 0.997608 0.820446
vt 0.220246 0.820446
vt 0.780311 0.819390
vt 0.497249 0.826783
vt 0.784535 0.164767
vt 0.499362 0.168992
vt 0.000556 0.171104
vt 0.999721 0.164767
vt 0.002669 0.822558
vt 0.218133 1.000000
vt 0.499362 0.997887
vt 0.499361 -0.002112
vn 0.000000 0.000000 1.000000
vn 0.000000 0.000000 1.000000
vn 0.000000 0.000000 1.000000
vn 0.000000 0.000000 1.000000
vn 0.000000 1.000000 0.000000
vn 0.000000 1.000000 0.000000
vn 0.000000 1.000000 0.000000
vn 0.000000 1.000000 0.000000
vn 0.000000 0.000000 -1.000000
vn 0.000000 0.000000 -1.000000
vn 0.000000 0.000000 -1.000000
vn 0.000000 0.000000 -1.000000
vn 0.000000 -1.000000 0.000000
vn 0.000000 -1.000000 0.000000
vn 0.000000 -1.000000 0.000000
vn 0.000000 -1.000000 0.000000
vn 1.000000 0.000000 0.000000
vn 1.000000 0.000000 0.000000
vn 1.000000 0.000000 0.000000
vn 1.000000 0.000000 0.000000
vn -1.000000 0.000000 0.000000
vn -1.000000 0.000000 0.000000
vn -1.000000 0.000000 0.000000
vn -1.000000 0.000000 0.000000
s off
g pCube1
usemtl initialShadingGroup
f 1/1/1 2/9/2 4/11/3 3/4/4
f 3/4/5 4/12/6 6/13/7 5/6/8
f 5/6/9 6/5/10 8/7/11 7/8/12
f 7/8/13 8/14/14 2/2/15 1/1/16
f 2/10/17 8/7/18 6/5/19 4/3/20
f 7/8/21 1/1/22 3/4/23 5/6/24
